<?xml version="1.0" encoding="UTF-8" standalone="no"?>
<!-- Created with Inkscape (http://www.inkscape.org/) -->

<svg
   width="50mm"
   height="50mm"
   viewBox="0 0 50 50"
   version="1.1"
   id="svg1"
   inkscape:version="1.3.2 (091e20ef0f, 2023-11-25)"
   sodipodi:docname="logo.svg"
   xmlns:inkscape="http://www.inkscape.org/namespaces/inkscape"
   xmlns:sodipodi="http://sodipodi.sourceforge.net/DTD/sodipodi-0.dtd"
   xmlns="http://www.w3.org/2000/svg"
   xmlns:svg="http://www.w3.org/2000/svg">
  <sodipodi:namedview
     id="namedview1"
     pagecolor="#ffffff"
     bordercolor="#000000"
     borderopacity="0.25"
     inkscape:showpageshadow="2"
     inkscape:pageopacity="0.0"
     inkscape:pagecheckerboard="0"
     inkscape:deskcolor="#d1d1d1"
     inkscape:document-units="mm"
     inkscape:zoom="0.71535494"
     inkscape:cx="397.00572"
     inkscape:cy="225.76205"
     inkscape:window-width="1920"
     inkscape:window-height="1016"
     inkscape:window-x="0"
     inkscape:window-y="27"
     inkscape:window-maximized="1"
     inkscape:current-layer="layer1" />
  <defs
     id="defs1" />
  <g
     inkscape:label="Layer 1"
     inkscape:groupmode="layer"
     id="layer1">
    <path
       id="path4"
       style="fill:#000000;stroke-width:0.209216"
       d="M 10.566075,0 A 19.24495,19.24495 0 0 0 3.5221575,26.289284 19.24495,19.24495 0 0 0 10.620575,33.301775 L 0,39.433531 a 19.24495,19.24495 0 0 0 26.289283,7.044314 19.24495,19.24495 0 0 0 7.040341,-7.050287 L 39.43353,50.000002 A 19.24495,19.24495 0 0 0 46.477843,23.710717 19.24495,19.24495 0 0 0 39.377435,16.699021 L 50,10.566075 A 19.24495,19.24495 0 0 0 32.325962,0.97024414 19.24495,19.24495 0 0 0 23.710717,3.5221575 19.24495,19.24495 0 0 0 16.697828,10.620972 Z m 14.433927,13.452939 a 11.54697,11.54697 0 0 1 4.274404,0.86244 11.54697,11.54697 0 0 1 1.027926,0.48731 11.54697,11.54697 0 0 1 1.085608,0.627337 11.54697,11.54697 0 0 1 0.892673,0.675472 11.54697,11.54697 0 0 1 0.943588,0.850107 11.54697,11.54697 0 0 1 0.729576,0.835389 11.54697,11.54697 0 0 1 0.751846,1.035086 11.54697,11.54697 0 0 1 1.841441,6.17392 11.54697,11.54697 0 0 1 -0.822267,4.120853 11.54697,11.54697 0 0 1 -0.597894,1.278145 11.54697,11.54697 0 0 1 -0.522316,0.900628 11.54697,11.54697 0 0 1 -0.747474,0.997295 11.54697,11.54697 0 0 1 -0.811921,0.89864 11.54697,11.54697 0 0 1 -0.812714,0.71565 11.54697,11.54697 0 0 1 -1.117832,0.809532 11.54697,11.54697 0 0 1 -6.114644,1.826315 11.54697,11.54697 0 0 1 -4.11449,-0.820266 A 11.54697,11.54697 0 0 1 19.608163,35.131277 11.54697,11.54697 0 0 1 18.70475,34.60697 11.54697,11.54697 0 0 1 17.707057,33.86069 11.54697,11.54697 0 0 1 16.807622,33.047975 11.54697,11.54697 0 0 1 16.089586,32.233671 11.54697,11.54697 0 0 1 15.282043,31.118625 11.54697,11.54697 0 0 1 13.45294,25 a 11.54697,11.54697 0 0 1 0.820272,-4.114488 11.54697,11.54697 0 0 1 0.595513,-1.277349 11.54697,11.54697 0 0 1 0.524306,-0.903413 11.54697,11.54697 0 0 1 0.74628,-0.997693 11.54697,11.54697 0 0 1 0.812714,-0.899435 11.54697,11.54697 0 0 1 0.814305,-0.718037 11.54697,11.54697 0 0 1 1.115045,-0.807542 11.54697,11.54697 0 0 1 6.118627,-1.829104 z" />
  </g>
</svg>
